<?xml version="1.0" encoding="iso-8859-1"?>
<!-- Generator: Adobe Illustrator 18.0.0, SVG Export Plug-In . SVG Version: 6.00 Build 0)  -->
<!DOCTYPE svg PUBLIC "-//W3C//DTD SVG 1.1//EN" "http://www.w3.org/Graphics/SVG/1.1/DTD/svg11.dtd">
<svg version="1.1" id="Capa_1" xmlns="http://www.w3.org/2000/svg" xmlns:xlink="http://www.w3.org/1999/xlink" x="0px" y="0px"
	 viewBox="0 0 58 58" style="enable-background:new 0 0 58 58;" xml:space="preserve">
<g>
	<path style="fill:#E0E1E2;" d="M29,12v5.869c0,1.451-0.972,2.789-2.396,3.071C24.693,21.319,23,19.848,23,18v9
		c0,1.848-1.693,3.319-3.604,2.94C17.972,29.657,17,28.32,17,26.869V23.5c0,0.812-0.395,1.534-1,1.991v31.634
		C19.788,57.68,24.238,58,29,58c5.696,0,10.944-0.458,15.147-1.228v-46C39.944,11.542,34.696,12,29,12z"/>
	<path style="fill:#C2C3C5;" d="M13.821,25.909C12.721,25.614,12,24.551,12,23.412V10.964c0-0.19,0.022-0.374,0.056-0.554
		c-0.304-0.067-0.6-0.136-0.889-0.207c-0.026-0.006-0.05-0.013-0.076-0.019c-0.262-0.064-0.518-0.13-0.767-0.198
		c-0.042-0.011-0.082-0.023-0.124-0.034C9.969,9.889,9.743,9.825,9.523,9.76c-0.051-0.015-0.1-0.031-0.15-0.046
		C9.169,9.652,8.97,9.589,8.776,9.526C8.716,9.506,8.659,9.486,8.6,9.466C8.421,9.406,8.245,9.344,8.075,9.282
		C8.012,9.259,7.95,9.235,7.887,9.211c-0.158-0.06-0.313-0.12-0.462-0.181C7.36,9.004,7.297,8.977,7.234,8.95
		c-0.141-0.06-0.277-0.12-0.41-0.181C6.761,8.74,6.699,8.711,6.638,8.682c-0.124-0.059-0.243-0.12-0.359-0.18
		C6.218,8.47,6.157,8.439,6.099,8.407C5.991,8.348,5.888,8.288,5.788,8.228C5.73,8.193,5.673,8.159,5.618,8.125
		c-0.093-0.059-0.18-0.118-0.266-0.178C5.3,7.91,5.247,7.873,5.198,7.836c-0.08-0.059-0.153-0.12-0.225-0.18
		C4.928,7.619,4.881,7.581,4.839,7.543c-0.066-0.06-0.126-0.121-0.184-0.182C4.616,7.322,4.576,7.283,4.541,7.244
		C4.487,7.183,4.442,7.121,4.397,7.06c-0.03-0.04-0.063-0.08-0.09-0.12C4.266,6.876,4.233,6.812,4.2,6.748
		C4.18,6.709,4.155,6.67,4.138,6.63c-0.031-0.07-0.05-0.141-0.071-0.212c-0.01-0.034-0.025-0.067-0.032-0.101
		C4.012,6.212,4,6.106,4,6v46c0,2.171,4.804,4.072,12,5.126V25.491C15.416,25.933,14.638,26.128,13.821,25.909z"/>
	<path style="fill:#C2C3C5;" d="M54,52V6c0,1.947-3.866,3.676-9.853,4.772v46C50.134,55.676,54,53.947,54,52z"/>
	<path style="fill:#26B99A;" d="M17.964,40.5L17.964,40.5c-1.381-1.381-1.381-3.619,0-5l2.5-2.5l2.5,2.5
		c1.381,1.381,1.381,3.619,0,5l0,0C21.584,41.881,19.345,41.881,17.964,40.5z"/>
	<path style="fill:#E7ECED;" d="M25,57.921C26.304,57.971,27.637,58,29,58c2.07,0,4.077-0.062,6-0.176v-46
		C33.077,11.938,31.07,12,29,12v5.869c0,1.451-0.972,2.789-2.396,3.071c-0.57,0.113-1.113,0.046-1.604-0.131V57.921z"/>
	<path style="fill:#556080;" d="M29.908,49h-1.816C14.256,49,3,36.015,3,20.053V14c0-0.553,0.447-1,1-1s1,0.447,1,1v6.053
		C5,34.911,15.359,47,28.092,47h1.816C42.641,47,53,34.911,53,20.053V14c0-0.553,0.447-1,1-1s1,0.447,1,1v6.053
		C55,36.015,43.744,49,29.908,49z"/>
	<path style="fill:#26B99A;" d="M29,0C15.193,0,4,2.686,4,6c0,1.744,3.104,3.314,8.056,4.41C12.022,10.591,12,10.775,12,10.964
		v12.448c0,1.138,0.721,2.202,1.821,2.497C15.484,26.355,17,25.096,17,23.5v3.369c0,1.451,0.972,2.789,2.396,3.071
		C21.307,30.319,23,28.848,23,27v-9c0,1.848,1.693,3.319,3.604,2.94C28.028,20.657,29,19.32,29,17.869V12c13.807,0,25-2.686,25-6
		S42.807,0,29,0z"/>
	<g>
		<path style="fill:#7383BF;" d="M12,10.964c0-0.19,0.022-0.374,0.056-0.554C7.104,9.314,4,7.744,4,6v5c0,1.738,3.081,3.302,8,4.398
			V10.964z"/>
		<path style="fill:#7383BF;" d="M29,12v5c13.807,0,25-2.686,25-6V6C54,9.314,42.807,12,29,12z"/>
	</g>
</g>
<g>
</g>
<g>
</g>
<g>
</g>
<g>
</g>
<g>
</g>
<g>
</g>
<g>
</g>
<g>
</g>
<g>
</g>
<g>
</g>
<g>
</g>
<g>
</g>
<g>
</g>
<g>
</g>
<g>
</g>
</svg>
