<?xml version="1.0" encoding="iso-8859-1"?>
<!-- Generator: Adobe Illustrator 18.0.0, SVG Export Plug-In . SVG Version: 6.00 Build 0)  -->
<!DOCTYPE svg PUBLIC "-//W3C//DTD SVG 1.1//EN" "http://www.w3.org/Graphics/SVG/1.1/DTD/svg11.dtd">
<svg version="1.1" id="Capa_1" xmlns="http://www.w3.org/2000/svg" xmlns:xlink="http://www.w3.org/1999/xlink" x="0px" y="0px"
	 viewBox="0 0 59 59" style="enable-background:new 0 0 59 59;" xml:space="preserve">
<g>
	<path style="fill:#26B99A;" d="M2.5,47.5L2.5,47.5c-1.381-1.381-1.381-3.619,0-5L5,40l2.5,2.5c1.381,1.381,1.381,3.619,0,5l0,0
		C6.119,48.881,3.881,48.881,2.5,47.5z"/>
	
		<ellipse transform="matrix(0.7071 -0.7071 0.7071 0.7071 -8.8604 19.3199)" style="fill:#26B99A;" cx="18.891" cy="20.355" rx="19" ry="5"/>
	<path style="fill:#C2C3C5;" d="M22.426,23.891c-7.42,7.42-15.018,11.852-16.971,9.899l24.749,24.749
		c1.953,1.953,9.551-2.48,16.971-9.899s11.852-15.018,9.899-16.971L32.326,6.92C34.279,8.873,29.846,16.471,22.426,23.891z"/>
	<g>
		<path style="fill:#556080;" d="M36.217,25.8l10.62,10.62c0.4,0.4,1.06,0.397,1.444-0.019c3.82-4.137,5.452-8.075,4.125-9.402
			l-13-12.87c1.225,1.225-0.072,4.676-3.288,8.447C35.311,23.523,35.337,24.921,36.217,25.8z"/>
		<path style="fill:#556080;" d="M17.727,40.244c-2.466,1.253-4.351,1.596-5.191,0.756l13,12.87
			c0.844,0.844,2.443,0.151,4.845-1.206c0.58-0.328,0.692-1.124,0.22-1.594l-10.519-10.47
			C19.459,39.981,18.509,39.847,17.727,40.244z"/>
	</g>
	<path style="fill:#26B99A;" d="M5.829,29.456C4.572,32.126,4.672,33.63,4.536,35c-0.67,6.75,0.305,2.983,6.169-2.726
		C9.006,31.499,7.379,30.497,5.829,29.456z"/>
	<path style="fill:#E7ECED;" d="M39.675,55.102c2.363-1.709,4.94-3.902,7.5-6.462c0.269-0.269,0.526-0.538,0.787-0.808
		L23.213,23.083c-0.261,0.269-0.517,0.539-0.787,0.808c-2.56,2.56-5.136,4.753-7.5,6.462L39.675,55.102z"/>
	<g>
		<circle style="fill:#6C797A;" cx="27.536" cy="30" r="4"/>
		<path style="fill:#E0E1E2;" d="M27.536,34.5c-2.481,0-4.5-2.019-4.5-4.5s2.019-4.5,4.5-4.5s4.5,2.019,4.5,4.5
			S30.017,34.5,27.536,34.5z M27.536,26.5c-1.93,0-3.5,1.57-3.5,3.5s1.57,3.5,3.5,3.5s3.5-1.57,3.5-3.5S29.465,26.5,27.536,26.5z"/>
	</g>
	<path style="fill:#556080;" d="M21.036,0c-4.136,0-7.5,3.364-7.5,7.5v11.215c0.587-0.631,1.188-1.263,1.82-1.895
		c0.06-0.06,0.12-0.116,0.18-0.176V7.5c0-3.032,2.468-5.5,5.5-5.5s5.5,2.468,5.5,5.5V30h2V7.5C28.536,3.364,25.171,0,21.036,0z"/>
</g>
<g>
</g>
<g>
</g>
<g>
</g>
<g>
</g>
<g>
</g>
<g>
</g>
<g>
</g>
<g>
</g>
<g>
</g>
<g>
</g>
<g>
</g>
<g>
</g>
<g>
</g>
<g>
</g>
<g>
</g>
</svg>
