<?xml version="1.0" encoding="iso-8859-1"?>
<!-- Generator: Adobe Illustrator 19.1.0, SVG Export Plug-In . SVG Version: 6.00 Build 0)  -->
<svg version="1.1" id="Capa_1" xmlns="http://www.w3.org/2000/svg" xmlns:xlink="http://www.w3.org/1999/xlink" x="0px" y="0px"
	 viewBox="0 0 218.332 218.332" style="enable-background:new 0 0 218.332 218.332;" xml:space="preserve">
<g>
	<g id="group-27svg">
		<path id="path-1_88_" style="fill:#2476FF;" d="M167.413,191.076h14.75c2.843,0,5.148,1.447,5.148,3.232
			c0,1.785-2.305,3.232-5.148,3.232h-0.687c-2.844,0-5.149,1.447-5.149,3.232s2.305,3.231,5.149,3.231h31.707
			c2.844,0,5.149,1.448,5.149,3.233s-2.305,3.231-5.149,3.231h-38.104h-41.88c-2.843,0-5.149-1.446-5.149-3.231
			s2.306-3.233,5.149-3.233H142c2.843,0,5.148-1.446,5.148-3.231s-2.305-3.232-5.148-3.232h-41.881
			c-2.843,0-5.149-1.447-5.149-3.232c0-1.785,2.306-3.232,5.149-3.232h9.898H167.413z"/>
		<path id="path-2_88_" style="fill:#2476FF;" d="M31.393,184.167c4.265,0,7.723-2.17,7.723-4.848c0-2.677-3.458-4.847-7.723-4.847
			H7.723c-4.265,0-7.723,2.17-7.723,4.847c0,2.678,3.458,4.848,7.723,4.848H31.393z"/>
		<path id="path-3_88_" style="fill:#FBB713;" d="M84.257,190.507H96.01l4.868-25.019v26.531h20.709v-27.598
			c0,0,14.287,26.086,25.607,26.086h11.321c-6.941-19.196-6.049-23.382,0-39.952V112.06c0-12.522-10.247-22.674-22.887-22.674h-69.5
			c-12.64,0-22.887,10.152-22.887,22.674v78.033h17.327v-27.812l4.018,27.042h8.421l3.61-20.26L84.257,190.507z"/>
		<path id="path-4_87_" style="opacity:0.25;enable-background:new    ;" d="M87.778,190.508v-16.368l-3.185,16.368H87.778z"/>
		<path id="path-5_87_" style="opacity:0.25;enable-background:new    ;" d="M63.516,177.714l-0.358,2.007l1.428,9.602h3.067
			L63.516,177.714z"/>
		<path id="path-6_86_" style="opacity:0.25;enable-background:new    ;" d="M47.467,170.934v19.16h2.848L47.467,170.934z"/>
		<path id="path-7_86_" style="opacity:0.25;enable-background:new    ;" d="M108.487,173.072v18.946h13.1v-0.523
			C114.379,183.799,108.487,173.072,108.487,173.072z"/>
		<path id="path-8_83_" style="opacity:0.25;enable-background:new    ;" d="M158.515,112.059c0-12.521-10.247-22.673-22.887-22.673
			h-69.5c-7.587,0-14.26,3.7-18.424,9.331c1.716-0.407,3.483-0.679,5.325-0.679h69.499c12.641,0,22.888,10.151,22.888,22.673v38.495
			c-4.8,13.144-6.335,18.519-3.306,29.753c1.723,0.946,3.435,1.548,5.084,1.548h11.321c-6.941-19.197-6.049-23.383,0-39.953V112.059
			z"/>
		<path id="path-9_79_" style="fill:#142A3B;" d="M113.173,90.964l7.031-69.64c0.727-7.206-4.985-13.459-12.296-13.459h-14.06
			c-7.31,0-13.022,6.253-12.295,13.459l7.03,69.64H113.173z"/>
		<path id="path-10_72_" style="fill:#EDEDED;" d="M103.966,45.548l1.765-17.489c0.183-1.81-1.251-3.38-3.088-3.38h-3.531
			c-1.835,0-3.269,1.57-3.087,3.38l1.765,17.489H103.966z"/>
		<path id="path-11_63_" style="fill:#142A3B;" d="M158.516,131.249H43.241v-7.209h115.275V131.249z"/>
		<path id="path-12_53_" style="fill:#142A3B;" d="M158.516,118.7H43.241v-7.21h115.275V118.7z"/>
	</g>
</g>
<g>
</g>
<g>
</g>
<g>
</g>
<g>
</g>
<g>
</g>
<g>
</g>
<g>
</g>
<g>
</g>
<g>
</g>
<g>
</g>
<g>
</g>
<g>
</g>
<g>
</g>
<g>
</g>
<g>
</g>
</svg>
