<?xml version="1.0" encoding="iso-8859-1"?>
<!-- Generator: Adobe Illustrator 19.1.0, SVG Export Plug-In . SVG Version: 6.00 Build 0)  -->
<svg version="1.1" id="Capa_1" xmlns="http://www.w3.org/2000/svg" xmlns:xlink="http://www.w3.org/1999/xlink" x="0px" y="0px"
	 viewBox="0 0 216.29 216.29" style="enable-background:new 0 0 216.29 216.29;" xml:space="preserve">
<g>
	<g id="group-126svg">
		<path id="path-1_30_" style="fill:#FF3A2F;" d="M86.385,199.188h16.042c3.094,0,5.602,1.116,5.602,2.491
			c0,1.376-2.508,2.491-5.602,2.491h-0.746c-3.093,0-5.601,1.115-5.601,2.492c0,1.376,2.508,2.491,5.601,2.491h34.486
			c3.092,0,5.6,1.116,5.6,2.49c0,1.377-2.508,2.492-5.6,2.492H94.723H49.174c-3.093,0-5.601-1.115-5.601-2.492
			c0-1.374,2.508-2.49,5.601-2.49h9.571c3.093,0,5.601-1.115,5.601-2.491c0-1.377-2.508-2.492-5.601-2.492H13.194
			c-3.093,0-5.6-1.115-5.6-2.491c0-1.375,2.507-2.491,5.6-2.491H23.96H86.385z"/>
		<path id="path-2_30_" style="fill:#FF3A2F;" d="M185.677,216.29c3.53,0,6.394-1.273,6.394-2.843c0-1.571-2.864-2.845-6.394-2.845
			H166.08c-3.531,0-6.394,1.274-6.394,2.845c0,1.57,2.863,2.843,6.394,2.843H185.677z"/>
		<path id="path-3_30_" style="fill:#FF3A2F;" d="M183.267,183.877h7.365c1.421,0,2.571,0.633,2.571,1.413
			c0,0.781-1.15,1.414-2.571,1.414h-0.342c-1.421,0-2.572,0.632-2.572,1.414c0,0.78,1.151,1.412,2.572,1.412h15.834
			c1.42,0,2.573,0.632,2.573,1.414c0,0.78-1.153,1.413-2.573,1.413h-19.03h-38.896c-1.42,0-2.571-0.633-2.571-1.413
			c0-0.782,1.151-1.414,2.571-1.414h4.395c1.421,0,2.571-0.632,2.571-1.412c0-0.782-1.15-1.414-2.571-1.414h-20.915
			c-1.42,0-2.573-0.633-2.573-1.414c0-0.78,1.153-1.413,2.573-1.413h4.942H183.267z"/>
		<path id="path-4_30_" style="fill:#142A3B;" d="M83.065,137.521l69.83-128.535c0.063-0.119,0.056-0.25,0.118-0.369
			c0.181-0.403,0.278-0.801,0.374-1.224c0.082-0.37,0.178-0.72,0.187-1.099c0.012-0.389-0.05-0.756-0.112-1.143
			c-0.062-0.396-0.112-0.781-0.259-1.158c-0.122-0.345-0.319-0.645-0.504-0.961c-0.22-0.377-0.44-0.743-0.745-1.071
			c-0.096-0.092-0.128-0.219-0.223-0.311c-0.199-0.192-0.464-0.27-0.689-0.433c-0.237-0.169-0.4-0.406-0.662-0.547
			c-0.133-0.068-0.266-0.061-0.397-0.12c-0.37-0.17-0.756-0.253-1.152-0.346c-0.396-0.09-0.783-0.191-1.182-0.202
			c-0.375-0.016-0.727,0.051-1.105,0.108c-0.412,0.06-0.814,0.114-1.205,0.255c-0.342,0.122-0.638,0.311-0.957,0.494
			c-0.383,0.224-0.752,0.442-1.088,0.749c-0.099,0.087-0.22,0.122-0.32,0.221l-99.72,102.964
			c-14.407,6.451-37.006,25.733-26.898,56.841c6.543,20.108,5.762,24.26,5.452,24.948c-0.25,0.238-1.268,0.703-2.016,1.043
			c-1.471,0.678-3.053,1.426-4.647,2.514l-4.394,3.438l1.272,4.279c0.42,1.432,1.998,4.781,7.465,4.931
			C32.953,203.157,74.429,187.742,83.065,137.521z"/>
		<path id="path-5_30_" style="opacity:0.35;fill:#020403;enable-background:new    ;" d="M75.671,126.535L143.687,1.339
			c0.229-0.163,0.451-0.337,0.695-0.48c0.319-0.183,0.615-0.372,0.957-0.494c0.391-0.141,0.793-0.195,1.205-0.256
			c0.377-0.056,0.73-0.123,1.105-0.107c0.399,0.011,0.786,0.112,1.182,0.202c0.396,0.093,0.782,0.176,1.151,0.348
			c0.132,0.057,0.265,0.05,0.398,0.118c0.262,0.141,0.425,0.378,0.663,0.547c0.224,0.163,0.489,0.241,0.69,0.433
			c0.093,0.092,0.125,0.219,0.221,0.312c0.305,0.327,0.525,0.693,0.745,1.07c0.185,0.316,0.382,0.616,0.504,0.962
			c0.147,0.376,0.197,0.761,0.259,1.157c0.062,0.387,0.124,0.754,0.113,1.143c-0.01,0.379-0.106,0.729-0.188,1.099
			c-0.096,0.422-0.193,0.821-0.374,1.224c-0.062,0.119-0.055,0.25-0.118,0.369l-69.83,128.535
			c-8.636,50.221-50.112,65.636-63.577,65.266c-5.467-0.151-7.045-3.498-7.465-4.93l-1.272-4.28l2.325-1.819
			C27.406,191.445,67.222,175.67,75.671,126.535z"/>
		<path id="path-6_30_" style="fill:#FF3A2F;" d="M84.541,134.805l-1.476,2.716c-8.636,50.221-50.112,65.636-63.577,65.266
			c-5.467-0.151-7.045-3.499-7.465-4.931l-1.272-4.279l4.395-3.436c1.593-1.09,3.175-1.838,4.646-2.516
			c0.748-0.34,1.766-0.805,2.015-1.043c0.311-0.688,1.092-4.84-5.45-24.947c-9.421-28.989,9.558-47.696,23.846-55.333
			L84.541,134.805z"/>
		<path id="path-7_30_" style="opacity:0.35;fill:#020403;enable-background:new    ;" d="M63.045,141.412
			c1.08-4.569-0.395-9.39-3.81-12.643L37.359,107.94c0.962-0.591,1.914-1.141,2.844-1.638l44.339,28.503l-1.477,2.716
			c-8.636,50.221-50.112,65.636-63.577,65.266c-4.458-0.124-6.309-2.36-7.077-3.962C27.741,196.735,53.529,181.712,63.045,141.412z"
			/>
		<path id="path-8_30_" style="fill:#FFFFFF;" d="M18.912,143.993c0,4.213,3.449,7.63,7.702,7.63c4.254,0,7.702-3.417,7.702-7.63
			c0-4.214-3.448-7.629-7.702-7.629C22.361,136.364,18.912,139.779,18.912,143.993z"/>
	</g>
</g>
<g>
</g>
<g>
</g>
<g>
</g>
<g>
</g>
<g>
</g>
<g>
</g>
<g>
</g>
<g>
</g>
<g>
</g>
<g>
</g>
<g>
</g>
<g>
</g>
<g>
</g>
<g>
</g>
<g>
</g>
</svg>
