<?xml version="1.0" encoding="iso-8859-1"?>
<!-- Generator: Adobe Illustrator 19.1.0, SVG Export Plug-In . SVG Version: 6.00 Build 0)  -->
<svg version="1.1" id="Capa_1" xmlns="http://www.w3.org/2000/svg" xmlns:xlink="http://www.w3.org/1999/xlink" x="0px" y="0px"
	 viewBox="0 0 217.717 217.717" style="enable-background:new 0 0 217.717 217.717;" xml:space="preserve">
<g>
	<g id="group-23svg">
		<path id="path-1_84_" style="fill:#FBB713;" d="M82.579,188.634h14.872c2.866,0,5.191,1.458,5.191,3.258s-2.325,3.258-5.191,3.258
			h-0.693c-2.868,0-5.192,1.459-5.192,3.259s2.324,3.259,5.192,3.259h31.968c2.868,0,5.192,1.459,5.192,3.258
			c0,1.799-2.324,3.259-5.192,3.259H90.308H48.083c-2.868,0-5.192-1.46-5.192-3.259c0-1.799,2.324-3.258,5.192-3.258h8.872
			c2.867,0,5.192-1.459,5.192-3.259s-2.325-3.259-5.192-3.259H14.73c-2.868,0-5.192-1.458-5.192-3.258s2.324-3.258,5.192-3.258
			h9.979H82.579z"/>
		<path id="path-2_84_" style="fill:#FBB713;" d="M200.39,217.717c4.301,0,7.788-2.189,7.788-4.889c0-2.699-3.487-4.888-7.788-4.888
			h-23.864c-4.301,0-7.788,2.189-7.788,4.888c0,2.7,3.487,4.889,7.788,4.889H200.39z"/>
		<path id="path-3_84_" style="fill:#0CB04A;" d="M67.898,35.047c0,0-13.477,55.075,23.585,115.155h58.965
			c0,0,35.377-47.563,21.9-115.155H67.898z"/>
		<path id="path-4_83_" style="fill:#FBB713;" d="M73.875,112.392c3.936,12.031,9.584,24.802,17.609,37.81h58.963
			c0,0,10.46-14.096,17.838-37.81H73.875z"/>
		<path id="path-5_83_" style="opacity:0.25;enable-background:new    ;" d="M172.348,35.047h-16.444
			c7.965,61.788-23.652,104.34-23.652,104.34H85.318c1.884,3.581,3.928,7.188,6.166,10.815h58.963
			C150.447,150.202,185.825,102.639,172.348,35.047z"/>
		<path id="path-6_82_" style="fill:#FF3A2F;" d="M101.58,100.116c0-10.329,18.879-33.685,18.879-33.685
			s18.879,23.356,18.879,33.685s-8.452,18.703-18.879,18.703C110.033,118.819,101.58,110.445,101.58,100.116z"/>
		<path id="path-7_82_" style="fill:#142A3B;" d="M145.056,180.243H95.862c-2.232,0-4.042-1.81-4.042-4.043v-25.998h57.279V176.2
			C149.099,178.433,147.289,180.243,145.056,180.243z"/>
		<path id="path-8_79_" style="fill:#142A3B;" d="M173.879,35.047H67.04V3.408C67.04,1.526,68.566,0,70.447,0h100.024
			c1.882,0,3.408,1.526,3.408,3.408V35.047z"/>
		<path id="path-9_75_" style="fill:#FBB713;" d="M128.883,180.243v-6.676c0-4.59-3.791-8.345-8.424-8.345
			c-4.633,0-8.423,3.755-8.423,8.345v6.676H128.883z"/>
		<path id="path-10_69_" style="opacity:0.35;enable-background:new    ;" d="M174.597,50.246
			c-0.497-4.946-1.214-10.005-2.249-15.199H67.898c0,0-0.479,1.965-1.008,5.547L174.597,50.246z"/>
		<path id="path-11_60_" style="fill:#FFFFFF;" d="M91.809,125.403c-1.457,0-2.833-0.873-3.394-2.299
			C78.012,96.616,76.169,72.889,76.454,57.649c0.039-1.991,1.686-3.569,3.706-3.538c2.01,0.038,3.609,1.681,3.572,3.673
			c-0.274,14.591,1.494,37.313,11.466,62.706c0.729,1.855-0.199,3.944-2.071,4.666C92.693,125.324,92.246,125.403,91.809,125.403z"
			/>
	</g>
</g>
<g>
</g>
<g>
</g>
<g>
</g>
<g>
</g>
<g>
</g>
<g>
</g>
<g>
</g>
<g>
</g>
<g>
</g>
<g>
</g>
<g>
</g>
<g>
</g>
<g>
</g>
<g>
</g>
<g>
</g>
</svg>
