<?xml version="1.0" encoding="iso-8859-1"?>
<!-- Generator: Adobe Illustrator 18.0.0, SVG Export Plug-In . SVG Version: 6.00 Build 0)  -->
<!DOCTYPE svg PUBLIC "-//W3C//DTD SVG 1.1//EN" "http://www.w3.org/Graphics/SVG/1.1/DTD/svg11.dtd">
<svg version="1.1" id="Capa_1" xmlns="http://www.w3.org/2000/svg" xmlns:xlink="http://www.w3.org/1999/xlink" x="0px" y="0px"
	 viewBox="0 0 297.5 297.5" style="enable-background:new 0 0 297.5 297.5;" xml:space="preserve">
<g id="XMLID_14_">
	<g>
		<path style="fill:#0B77A5;" d="M162.435,188.87v85.9c0,1.32-1.07,2.39-2.38,2.39h-22.61c-1.31,0-2.39-1.07-2.39-2.39v-85.9
			c0-1.31,1.08-2.38,2.39-2.38h22.61C161.365,186.49,162.435,187.56,162.435,188.87z"/>
		<path style="fill:#FCBF31;" d="M233.645,23.82v52.07c0,1.92-1.56,3.48-3.48,3.48H51.505c-1.92,0-3.47-1.56-3.47-3.48V23.82
			c0-1.92,1.55-3.48,3.47-3.48h178.66C232.085,20.34,233.645,21.9,233.645,23.82z"/>
		<path d="M285.385,49.85v79.12c0,5.55-4.5,10.05-10.05,10.05h-116.54v27.37h1.26c12.39,0,22.47,10.09,22.47,22.48v85.9
			c0,12.4-10.08,22.48-22.47,22.48h-22.61c-12.39,0-22.48-10.08-22.48-22.48v-85.9c0-12.39,10.09-22.48,22.48-22.48h1.26v-37.42
			c0-5.55,4.49-10.05,10.04-10.05h116.54V59.9h-11.55v15.99c0,13-10.57,23.57-23.57,23.57H51.505c-12.99,0-23.57-10.57-23.57-23.57
			V59.9h-5.77c-5.55,0-10.05-4.5-10.05-10.05c0-5.54,4.5-10.04,10.05-10.04h5.77V23.82c0-13,10.58-23.57,23.57-23.57h178.66
			c13,0,23.57,10.57,23.57,23.57v15.99h21.6C280.885,39.81,285.385,44.31,285.385,49.85z M233.645,75.89V23.82
			c0-1.92-1.56-3.48-3.48-3.48H51.505c-1.92,0-3.47,1.56-3.47,3.48v52.07c0,1.92,1.55,3.48,3.47,3.48h178.66
			C232.085,79.37,233.645,77.81,233.645,75.89z M162.435,274.77v-85.9c0-1.31-1.07-2.38-2.38-2.38h-22.61
			c-1.31,0-2.39,1.07-2.39,2.38v85.9c0,1.32,1.08,2.39,2.39,2.39h22.61C161.365,277.16,162.435,276.09,162.435,274.77z"/>
	</g>
	<g>
	</g>
</g>
<g>
</g>
<g>
</g>
<g>
</g>
<g>
</g>
<g>
</g>
<g>
</g>
<g>
</g>
<g>
</g>
<g>
</g>
<g>
</g>
<g>
</g>
<g>
</g>
<g>
</g>
<g>
</g>
<g>
</g>
</svg>
