<?xml version="1.0" encoding="iso-8859-1"?>
<!-- Generator: Adobe Illustrator 18.0.0, SVG Export Plug-In . SVG Version: 6.00 Build 0)  -->
<!DOCTYPE svg PUBLIC "-//W3C//DTD SVG 1.1//EN" "http://www.w3.org/Graphics/SVG/1.1/DTD/svg11.dtd">
<svg version="1.1" id="Capa_1" xmlns="http://www.w3.org/2000/svg" xmlns:xlink="http://www.w3.org/1999/xlink" x="0px" y="0px"
	 viewBox="0 0 58.999 58.999" style="enable-background:new 0 0 58.999 58.999;" xml:space="preserve">
<g>
	<path style="fill:#556080;" d="M23.5,14.999c-0.552,0-1-0.447-1-1v-3c0-0.553,0.448-1,1-1s1,0.447,1,1v3
		C24.5,14.552,24.052,14.999,23.5,14.999z"/>
	<rect x="20.5" y="4.999" style="fill:#E7ECED;" width="6" height="6"/>
	<path style="fill:#6C797A;" d="M26.5,5.999c-1.105,0-2,0.895-2,2c0,1.104,0.895,2,2,2V5.999z"/>
	<rect x="10.5" y="23.999" style="fill:#8D8D8B;" width="26" height="35"/>
	<path style="fill:#D9D9D7;" d="M34.5,23.999h-22v0c0-5.523,4.477-10,10-10h2C30.022,13.999,34.5,18.476,34.5,23.999L34.5,23.999z"
		/>
	<path style="fill:#7FABDA;" d="M47.5,8.999h-1c-0.553,0-1-0.447-1-1s0.447-1,1-1h1c0.553,0,1,0.447,1,1S48.052,8.999,47.5,8.999z
		 M43.5,8.999h-1c-0.553,0-1-0.447-1-1s0.447-1,1-1h1c0.553,0,1,0.447,1,1S44.052,8.999,43.5,8.999z M39.5,8.999h-1
		c-0.552,0-1-0.447-1-1s0.448-1,1-1h1c0.552,0,1,0.447,1,1S40.052,8.999,39.5,8.999z M35.5,8.999h-1c-0.552,0-1-0.447-1-1
		s0.448-1,1-1h1c0.552,0,1,0.447,1,1S36.052,8.999,35.5,8.999z M31.5,8.999h-1c-0.552,0-1-0.447-1-1s0.448-1,1-1h1
		c0.552,0,1,0.447,1,1S32.052,8.999,31.5,8.999z"/>
	<path style="fill:#7FABDA;" d="M30.5,5.999c-0.419,0-0.809-0.265-0.949-0.684c-0.175-0.524,0.108-1.09,0.632-1.265l0.949-0.316
		c0.525-0.177,1.091,0.108,1.265,0.632c0.175,0.524-0.108,1.09-0.632,1.265l-0.949,0.316C30.711,5.983,30.604,5.999,30.5,5.999z
		 M34.295,4.735c-0.419,0-0.809-0.265-0.949-0.684c-0.175-0.524,0.108-1.09,0.632-1.265l0.949-0.316
		c0.527-0.177,1.091,0.108,1.265,0.632c0.175,0.524-0.108,1.09-0.632,1.265l-0.949,0.316C34.506,4.718,34.4,4.735,34.295,4.735z
		 M38.089,3.469c-0.419,0-0.81-0.265-0.949-0.685c-0.174-0.524,0.109-1.09,0.633-1.265l0.949-0.315
		c0.522-0.171,1.09,0.109,1.264,0.634c0.174,0.524-0.109,1.09-0.633,1.265l-0.949,0.315C38.3,3.452,38.193,3.469,38.089,3.469z
		 M41.883,2.204c-0.419,0-0.81-0.265-0.949-0.685c-0.174-0.523,0.109-1.09,0.634-1.265l0.616-0.205
		c0.524-0.171,1.09,0.109,1.265,0.634c0.174,0.523-0.109,1.09-0.634,1.265l-0.616,0.205C42.094,2.188,41.988,2.204,41.883,2.204z"/>
	<path style="fill:#7FABDA;" d="M42.5,15.999c-0.104,0-0.211-0.017-0.315-0.051l-0.616-0.205c-0.524-0.175-0.808-0.741-0.634-1.265
		c0.174-0.524,0.742-0.805,1.265-0.634l0.616,0.205c0.524,0.175,0.808,0.741,0.634,1.265C43.309,15.735,42.919,15.999,42.5,15.999z
		 M39.038,14.845c-0.104,0-0.211-0.017-0.315-0.051l-0.949-0.315c-0.524-0.175-0.808-0.74-0.633-1.265s0.74-0.805,1.264-0.634
		l0.949,0.315c0.524,0.175,0.808,0.74,0.633,1.265C39.847,14.58,39.457,14.845,39.038,14.845z M35.243,13.58
		c-0.105,0-0.211-0.017-0.316-0.052l-0.949-0.316c-0.524-0.175-0.807-0.74-0.632-1.265s0.742-0.808,1.265-0.632l0.949,0.316
		c0.524,0.175,0.807,0.74,0.632,1.265C36.052,13.316,35.662,13.58,35.243,13.58z M31.448,12.316c-0.105,0-0.211-0.017-0.316-0.052
		l-0.949-0.316c-0.524-0.175-0.807-0.74-0.632-1.265c0.175-0.523,0.74-0.808,1.265-0.632l0.949,0.316
		c0.524,0.175,0.807,0.74,0.632,1.265C32.257,12.051,31.867,12.316,31.448,12.316z"/>
	<rect x="12.5" y="23.999" style="fill:#C2C3C5;" width="12.853" height="35"/>
	<rect x="23.5" y="23.999" style="fill:#E0E1E2;" width="7" height="35"/>
	<rect x="20.5" y="27.999" style="fill:#434C6D;" width="16" height="26.876"/>
	<rect x="14.5" y="23.999" style="fill:#E0E1E2;" width="3.162" height="35"/>
</g>
<g>
</g>
<g>
</g>
<g>
</g>
<g>
</g>
<g>
</g>
<g>
</g>
<g>
</g>
<g>
</g>
<g>
</g>
<g>
</g>
<g>
</g>
<g>
</g>
<g>
</g>
<g>
</g>
<g>
</g>
</svg>
